<?xml version="1.0" standalone="no"?>
<!DOCTYPE svg PUBLIC "-//W3C//DTD SVG 20010904//EN"
 "http://www.w3.org/TR/2001/REC-SVG-20010904/DTD/svg10.dtd">
<svg version="1.0" xmlns="http://www.w3.org/2000/svg"
 width="500.000000pt" height="500.000000pt" viewBox="0 0 500.000000 500.000000"
 preserveAspectRatio="xMidYMid meet">
<metadata>
Created by potrace 1.14, written by Peter Selinger 2001-2017
</metadata>
<g transform="translate(0.000000,500.000000) scale(0.100000,-0.100000)"
fill="#000000" stroke="none">
<path d="M2810 3009 c-158 -27 -270 -145 -270 -285 l0 -62 68 -57 c155 -130
384 -260 571 -326 109 -38 115 -35 105 50 -7 67 -18 96 -51 139 -40 53 -120
98 -253 142 -69 23 -133 49 -142 57 -29 26 -23 62 13 77 54 23 138 -8 161 -60
6 -13 15 -24 20 -24 7 0 212 114 226 125 8 7 -33 71 -71 112 -47 51 -111 86
-194 108 -63 17 -100 17 -183 4z"/>
<path d="M2269 2953 c17 -21 57 -67 90 -103 l60 -65 1 103 0 102 -91 0 -91 0
31 -37z"/>
<path d="M2140 2578 c0 -247 -1 -267 -19 -289 -16 -20 -29 -24 -71 -24 -45 0
-55 4 -80 31 l-28 32 -93 -55 c-152 -88 -142 -79 -124 -114 25 -47 95 -110
155 -138 49 -23 67 -26 170 -26 143 0 209 23 281 95 69 69 89 140 89 320 l0
138 -36 31 c-19 18 -76 78 -126 134 -50 56 -97 109 -104 117 -12 12 -14 -27
-14 -252z"/>
<path d="M2583 2288 l-91 -52 14 -35 c37 -88 137 -167 249 -196 76 -19 204
-19 280 0 62 17 157 63 162 80 2 6 -35 23 -83 39 -103 35 -275 117 -365 174
-36 23 -68 42 -70 42 -2 0 -45 -24 -96 -52z"/>
</g>
</svg>
